<svg id="ec220cd5-97d9-4228-889a-9aa97b4463c0" data-name="Layer 1" xmlns="http://www.w3.org/2000/svg" viewBox="0 0 251.56 214.48"><title>logo-final</title><path d="M248.73,90.11a30,30,0,0,0-5-9.92,38.09,38.09,0,0,0-3.52-3.82c-.31-.31-.61-.63-.93-.93s-.62-.63-.94-.94-.61-.62-.92-.92-.61-.63-.93-.93-.61-.63-.93-.93-.62-.63-.94-.94-.61-.63-.93-.93-.61-.63-.93-.93-.61-.63-.93-.93-.62-.63-.94-.94-.61-.62-.92-.92-.61-.63-.93-.93-.61-.63-.93-.93-.62-.63-.94-.94-.61-.63-.93-.93-.61-.63-.93-.93-.61-.63-.93-.93-.62-.63-.94-.94-.61-.62-.92-.92-.61-.63-.93-.93-.62-.63-.94-.94-.61-.62-.92-.92A38.28,38.28,0,0,0,215.25,52c-.95-.7-1.92-1.34-2.92-2a57.73,57.73,0,0,1,11.34,3.14,85.56,85.56,0,0,1,17.15,8.66l.38.25H244V32.66l.22.22.7-1.29-.92-.92h0l-.92-.92h0l-.92-.92h0l-.92-.92h0l-.92-.92h0l-.92-.92h0l-.92-.92h0l-.92-.92h0l-.92-.92h0l-.92-.92h0l-.92-.92h0l-.92-.92h0l-.92-.92h0l-.92-.92h0l-.92-.92h0L230,16.7h0l-.92-.92h0l-.92-.92h0l-.92-.92h0l-.92-.92h0l-.92-.92h0l-.92-.92h0l-.92-.92h0l-.92-.92h0l-.8-.42A74.9,74.9,0,0,0,186.48,0,55,55,0,0,0,171,2.08a39.53,39.53,0,0,0-12.79,6.38,29.43,29.43,0,0,0-9,11.48A39.19,39.19,0,0,0,146,36.25a36.74,36.74,0,0,0,3,15.32,27.75,27.75,0,0,0,6.07,8.73q.46.49.94.94t.93.93q.46.48.93.93t.93.93q.46.49.94.94t.93.93q.46.48.93.93t.92.92q.46.49.94.94t.93.93q.46.48.93.93t.93.93q.46.48.93.93t.93.93q.45.48.93.93t.94.94q.45.48.93.93t.94.94q.45.48.92.92t.94.94q.46.48.93.93t.93.93a22.4,22.4,0,0,0,2.68,2.44,48.4,48.4,0,0,0,10.32,6c1.22.52,2.45,1,3.68,1.47-5.14,2.19-13.32,1.55-23.7-2a89.74,89.74,0,0,1-18-8.38l-.36-.22H147.6v34.72l.93.36v.57l.93.36v.57l.93.36v.57l.93.36v.57l.93.36v.57l.93.36v.57l.93.36v.57l.93.36v.57l.93.36v.57l.93.36v.57l.93.36v.57l.93.36V126l.93.36v.57l.93.36v.57l.93.36v.57l.93.36v.57l.93.36v.57l.93.36v.57l.93.36v.57l.93.36v.57l.93.36v.57l.93.36v.57l.93.36v.57l1,.37c12.9,5,25.22,7.51,36.6,7.51,13.1,0,23.81-3.53,31.82-10.5s12.17-17.21,12.17-30.28A45,45,0,0,0,248.73,90.11Z" fill="#b9b9b9"/><path d="M0,158.21H10.8l6.27,19.84,6.29-19.84H34.27v30.34H26.62V168.84h-.28l-6.1,19.71H13.91l-6-19.71h-.3v19.71H0Z" fill="#fff"/><path d="M40.43,158.21H48v5.5H40.43Zm0,7.81h7.47v22.52H40.43Z" fill="#fff"/><path d="M51.64,177.3c0-6.5,3.56-11.7,10.61-11.7a22.35,22.35,0,0,1,6.89,1.27v7.66H69a8.39,8.39,0,0,0-5.62-2.47c-2.51,0-4.57,1.67-4.57,5.24s2.1,5.22,4.62,5.22A8.58,8.58,0,0,0,69,180.07h.13v7.64A21.75,21.75,0,0,1,62.25,189C55.21,189,51.64,183.81,51.64,177.3Z" fill="#fff"/><path d="M74.17,158.21h7.34v11.21h.21a7.42,7.42,0,0,1,6.46-3.82c4.1,0,7.08,3.16,7.08,7.92v15H87.84V175.63c0-2.34-1.42-3.43-3.13-3.43s-3.07,1.09-3.07,3.43v12.92H74.17Z" fill="#fff"/><path d="M120.37,182.63v5a11.69,11.69,0,0,1-5,1.46,3.64,3.64,0,0,1-3.67-2.45c-3.18,2-5,2.45-6.76,2.45-3.78,0-6.38-2.21-6.38-6.16,0-6.08,6.05-7.06,12.62-8.63V174c0-1.93-1.27-2.64-3.16-2.64-2.12,0-5.07.92-7.88,2V167.1a31.16,31.16,0,0,1,8.61-1.5c5.54,0,8.89,2.73,8.89,9.85v4.74c0,1.55,0,3,1,3a3.08,3.08,0,0,0,1.54-.6Zm-12.84,1.22a8,8,0,0,0,3.69-1.4v-4.21c-3.52,1.07-5.32,1.55-5.32,3.71C105.9,183.27,106.57,183.85,107.54,183.85Z" fill="#fff"/><path d="M141.85,178.57H128.62c.54,3.2,3.48,4.53,6.36,4.53a13.63,13.63,0,0,0,6.33-1.76h.21v6A18.22,18.22,0,0,1,134,189c-6.63,0-12.13-4.12-12.13-11.85,0-7.26,4.7-11.53,10.46-11.53s9.77,4.23,9.77,10.33A19.25,19.25,0,0,1,141.85,178.57Zm-13.33-4.36h7.41c-.17-2.3-1.4-3.61-3.59-3.61A3.67,3.67,0,0,0,128.51,174.21Z" fill="#fff"/><path d="M153.38,158.21v22.5c0,2.13.43,2.88,1.61,2.88a12.58,12.58,0,0,0,2-.24v5.2a34.26,34.26,0,0,1-4.36.43c-4.57,0-6.59-3.07-6.59-6.72v-24Z" fill="#fff"/><path d="M169.53,187v-8.39h.17c2.9,1.76,6.68,3.09,9.19,3.09,2.23,0,3.65-1,3.65-2.6,0-4.85-13.42-1.46-13.42-12.32,0-6.38,4.66-9.06,10.16-9.06a19.82,19.82,0,0,1,9,2.25v7.56h-.21c-2.64-1.76-6.42-3.24-8.85-3.24-1.57,0-2.58.64-2.58,1.74,0,4.06,13.35,1.12,13.35,12.67,0,6.83-4.66,10.24-11.08,10.24A26.66,26.66,0,0,1,169.53,187Z" fill="#fff"/><path d="M194.33,158.21h7.56v5.5h-7.56Zm0,7.81h7.47v22.52h-7.47Z" fill="#fff"/><path d="M227.7,158.21v30.34h-7.47v-2.73a7.3,7.3,0,0,1-6,3.16c-4.94,0-8.54-4.47-8.54-11.68s3.69-11.74,8.67-11.74a7.09,7.09,0,0,1,6.1,3.41V158.21Zm-7,19c0-3.52-1.33-5.58-3.84-5.58s-3.87,2.06-3.87,5.58,1.33,5.63,3.87,5.63S220.67,180.82,220.67,177.26Z" fill="#fff"/><path d="M251.32,178.57H238.09c.54,3.2,3.48,4.53,6.36,4.53a13.62,13.62,0,0,0,6.33-1.76H251v6a18.22,18.22,0,0,1-7.56,1.65c-6.63,0-12.13-4.12-12.13-11.85,0-7.26,4.7-11.53,10.46-11.53s9.77,4.23,9.77,10.33A19.25,19.25,0,0,1,251.32,178.57ZM238,174.21h7.41c-.17-2.3-1.39-3.61-3.58-3.61A3.67,3.67,0,0,0,238,174.21Z" fill="#fff"/><polygon points="89.93 1.79 66.83 74.64 66.83 74.62 66.83 83.89 66.83 83.89 91.98 4.58 89.93 1.79" fill="#888"/><polygon points="104.81 118.13 104.81 42.55 102.01 42.55 102.01 49.73 102.01 120.92 104.81 118.13" fill="#888"/><polygon points="105.74 119.06 105.74 43.48 102.94 43.48 102.94 50.66 102.94 121.86 105.74 119.06" fill="#888"/><polygon points="106.67 119.99 106.67 44.41 103.88 44.41 103.88 51.59 103.88 122.79 106.67 119.99" fill="#888"/><polygon points="107.6 120.92 107.6 45.34 104.81 45.34 104.81 52.52 104.81 123.72 107.6 120.92" fill="#888"/><polygon points="108.53 121.86 108.53 46.27 105.74 46.27 105.74 53.45 105.74 124.65 108.53 121.86" fill="#888"/><polygon points="109.46 122.79 109.46 47.2 106.67 47.2 106.67 54.38 106.67 125.58 109.46 122.79" fill="#888"/><polygon points="110.39 123.72 110.39 48.13 107.6 48.13 107.6 55.31 107.6 126.51 110.39 123.72" fill="#888"/><polygon points="111.33 124.65 111.33 49.07 108.53 49.07 108.53 56.24 108.53 127.44 111.33 124.65" fill="#888"/><polygon points="112.26 125.58 112.26 50 109.46 50 109.46 57.18 109.46 128.38 112.26 125.58" fill="#888"/><polygon points="113.19 126.51 113.19 50.93 110.39 50.93 110.39 58.11 110.39 129.31 113.19 126.51" fill="#888"/><polygon points="114.12 127.44 114.12 51.86 111.33 51.86 111.33 59.04 111.33 130.24 114.12 127.44" fill="#888"/><polygon points="115.05 128.38 115.05 52.79 112.26 52.79 112.26 59.97 112.26 131.17 115.05 128.38" fill="#888"/><polygon points="115.98 129.31 115.98 53.72 113.19 53.72 113.19 60.9 113.19 132.1 115.98 129.31" fill="#888"/><polygon points="116.91 130.24 116.91 54.65 114.12 54.65 114.12 61.83 114.12 133.03 116.91 130.24" fill="#888"/><polygon points="117.84 131.17 117.84 55.59 115.05 55.59 115.05 62.76 115.05 133.96 117.84 131.17" fill="#888"/><polygon points="118.78 132.1 118.78 56.52 115.98 56.52 115.98 63.7 115.98 134.9 118.78 132.1" fill="#888"/><polygon points="119.71 133.03 119.71 57.45 116.91 57.45 116.91 64.63 116.91 135.83 119.71 133.03" fill="#888"/><polygon points="120.64 133.96 120.64 58.38 117.84 58.38 117.84 65.56 117.84 136.76 120.64 133.96" fill="#888"/><polygon points="121.57 134.9 121.57 59.31 118.78 59.31 118.78 66.49 118.78 137.69 121.57 134.9" fill="#888"/><polygon points="48.54 59.31 48.54 66.28 70.4 137.69 72.46 134.9 49.33 59.31 48.54 59.31" fill="#888"/><polygon points="122.5 135.83 122.5 60.24 119.71 60.24 119.71 67.42 119.71 138.62 122.5 135.83" fill="#888"/><polygon points="49.47 60.24 49.47 67.21 71.33 138.62 73.4 135.83 50.26 60.24 49.47 60.24" fill="#888"/><polygon points="123.43 136.76 123.43 61.17 120.64 61.17 120.64 68.35 120.64 139.55 123.43 136.76" fill="#888"/><polygon points="50.4 61.17 50.4 68.14 72.26 139.55 74.33 136.76 51.19 61.17 50.4 61.17" fill="#888"/><polygon points="124.36 137.69 124.36 62.1 121.57 62.1 121.57 69.28 121.57 140.48 124.36 137.69" fill="#888"/><polygon points="51.33 62.1 51.33 69.07 73.19 140.48 75.26 137.69 52.12 62.1 51.33 62.1" fill="#888"/><polygon points="125.29 138.62 125.29 63.03 122.5 63.03 122.5 70.21 122.5 141.41 125.29 138.62" fill="#888"/><polygon points="52.26 63.03 52.27 70 74.12 141.41 76.19 138.62 53.05 63.03 52.26 63.03" fill="#888"/><polygon points="126.23 139.55 126.23 63.97 123.43 63.97 123.43 71.14 123.43 142.34 126.23 139.55" fill="#888"/><polygon points="53.19 63.97 53.2 70.94 75.05 142.34 77.12 139.55 53.98 63.97 53.19 63.97" fill="#888"/><path d="M218.5,97.66a22.69,22.69,0,0,0-7.85-4.31c-3-1-6.45-2-10.13-3a80.81,80.81,0,0,1-10.8-3.76A45.51,45.51,0,0,1,180,80.93c-2.82-2.15-4.88-.21-1.7,2.22a48.33,48.33,0,0,0,10.3,6A83.48,83.48,0,0,0,199.8,93c3.62,1,7,2,10,3a19.94,19.94,0,0,1,6.89,3.76,6.58,6.58,0,0,1,2.37,5.17c0,2.56,6.12-13.12,4-11.58-4.88,3.5-19.29-7.38-31-2.59-12,4.93-35.69-7.07-35.69-7.07v5.12l15.88,15.93a91.72,91.72,0,0,0,16.84,8.14c12.94,4.39,22.7,4.51,28.39.43a9.86,9.86,0,0,0,4.37-8.38A9.35,9.35,0,0,0,218.5,97.66Z" fill="#888"/><path d="M213.93,51c3.7,1.87,16.8,15.92,18.9,17.91L241,77.19l-22-9.77-18.4-7L199,52.31l10.68-3.24Z" fill="#888"/><path d="M207.51,143.57q-16.88,0-36.06-7.41V104h.66a90.86,90.86,0,0,0,18.32,8.52q9.84,3.33,16.92,3.33,6.42,0,10.21-2.72a8.49,8.49,0,0,0,3.79-7.25,8,8,0,0,0-2.84-6.22,21.21,21.21,0,0,0-7.37-4q-4.53-1.52-10-3a81.65,81.65,0,0,1-11-3.83,46.68,46.68,0,0,1-10-5.8,24.85,24.85,0,0,1-7.37-9.67,35.1,35.1,0,0,1-2.84-14.7A37.55,37.55,0,0,1,173,42.91,27.83,27.83,0,0,1,181.5,32a37.83,37.83,0,0,1,12.31-6.13,53.2,53.2,0,0,1,15-2,73.08,73.08,0,0,1,34.58,8.65v29h-.82a86.67,86.67,0,0,0-17.46-8.81Q215.5,49,208.67,49a12.9,12.9,0,0,0-7.2,1.77,5.57,5.57,0,0,0-2.68,4.9A5.92,5.92,0,0,0,200.56,60a14.09,14.09,0,0,0,4.73,3,59,59,0,0,0,6.79,2.31q3.83,1.07,8.07,2.43t8.48,3.13a38.27,38.27,0,0,1,8.07,4.61,36.55,36.55,0,0,1,6.79,6.55,28.37,28.37,0,0,1,4.73,9.43,43.24,43.24,0,0,1,1.77,12.8q0,19-11.65,29.15T207.51,143.57Z" fill="#2a2a2a"/><path d="M207.51,145.07c-11.38,0-23.7-2.53-36.6-7.51l-1-.37V102.46h2.58l.36.22a89.74,89.74,0,0,0,18,8.38c11.91,4,20.93,4.3,25.77.82a7,7,0,0,0,3.16-6,6.48,6.48,0,0,0-2.33-5.09A19.83,19.83,0,0,0,210.66,97c-3-1-6.33-2-10-3a83.52,83.52,0,0,1-11.19-3.9,48.38,48.38,0,0,1-10.32-6,26.42,26.42,0,0,1-7.82-10.24,36.73,36.73,0,0,1-3-15.32,39.19,39.19,0,0,1,3.22-16.31,29.43,29.43,0,0,1,9-11.48,39.52,39.52,0,0,1,12.79-6.38,55,55,0,0,1,15.45-2.08,74.9,74.9,0,0,1,35.28,8.82l.8.42V63h-2.78l-.38-.25a85.58,85.58,0,0,0-17.15-8.66c-6.22-2.34-11.58-3.53-15.94-3.53a11.52,11.52,0,0,0-6.38,1.52,4.07,4.07,0,0,0-2,3.65,4.44,4.44,0,0,0,1.34,3.23,12.69,12.69,0,0,0,4.24,2.71,57.66,57.66,0,0,0,6.62,2.25c2.56.72,5.29,1.54,8.12,2.45s5.74,2,8.6,3.17a39.94,39.94,0,0,1,8.38,4.79,38.2,38.2,0,0,1,7.07,6.81,30,30,0,0,1,5,9.92,44.9,44.9,0,0,1,1.84,13.25c0,13.07-4.09,23.26-12.17,30.28S220.62,145.07,207.51,145.07ZM173,135.12c12.21,4.61,23.83,6.94,34.56,6.94,12.36,0,22.4-3.28,29.85-9.76s11.13-15.85,11.13-28a42,42,0,0,0-1.7-12.36A27,27,0,0,0,242.32,83a35.21,35.21,0,0,0-6.51-6.28,37,37,0,0,0-7.75-4.43c-2.78-1.16-5.59-2.2-8.36-3.08s-5.49-1.71-8-2.41a60.7,60.7,0,0,1-7-2.37A15.65,15.65,0,0,1,199.48,61a7.4,7.4,0,0,1-2.2-5.33,7.1,7.1,0,0,1,3.35-6.15,14.39,14.39,0,0,1,8-2c4.72,0,10.43,1.25,17,3.72a89.75,89.75,0,0,1,16.25,8V33.41a71.84,71.84,0,0,0-33.08-8.06,52,52,0,0,0-14.6,2A36.53,36.53,0,0,0,182.4,33.2a26.48,26.48,0,0,0-8.06,10.33,36.25,36.25,0,0,0-3,15.06,33.79,33.79,0,0,0,2.71,14.07A23.49,23.49,0,0,0,181,81.78a45.41,45.41,0,0,0,9.68,5.62,80.52,80.52,0,0,0,10.79,3.76c3.68,1,7.09,2,10.13,3a22.79,22.79,0,0,1,7.88,4.33,9.45,9.45,0,0,1,3.35,7.34,10,10,0,0,1-4.41,8.46c-5.72,4.1-15.5,4-28.49-.42a93.37,93.37,0,0,1-17-7.69Z" fill="#b9b9b9"/><polygon points="155.54 24.38 156.01 24.85 156.72 24.14 134.12 1.79 89.87 1.79 74.2 51.23 66.08 25.54 65.91 25.54 65.62 24.63 66.1 24.14 65.17 23.21 65.17 23.21 65.17 23.21 64.24 22.28 64.24 22.28 64.24 22.28 63.31 21.35 63.31 21.35 63.31 21.35 62.38 20.42 62.38 20.42 62.38 20.42 61.45 19.49 61.45 19.48 61.45 19.48 60.52 18.55 60.52 18.55 60.52 18.55 59.59 17.62 59.59 17.62 59.58 17.62 58.65 16.69 58.65 16.69 58.65 16.69 57.72 15.76 57.72 15.76 57.72 15.76 56.79 14.83 56.79 14.83 56.79 14.83 55.86 13.9 55.86 13.9 55.86 13.9 54.93 12.97 54.93 12.97 54.93 12.97 54 12.04 54 12.04 53.99 12.04 53.07 11.11 53.07 11.1 53.06 11.1 52.13 10.18 52.13 10.17 52.13 10.17 51.2 9.24 51.2 9.24 51.2 9.24 50.27 8.31 50.27 8.31 50.27 8.31 49.34 7.38 49.34 7.38 49.34 7.38 48.41 6.45 48.41 6.45 48.41 6.45 47.48 5.52 47.48 5.52 47.48 5.52 46.55 4.59 46.55 4.58 46.54 4.58 45.62 3.66 45.62 3.65 45.61 3.65 44.69 2.73 44.68 2.72 44.68 2.72 43.75 1.79 43.75 1.79 0 1.79 0 120.92 0.01 120.92 0.01 120.93 0.93 121.85 0.93 121.86 0.94 121.86 1.86 122.78 1.86 122.79 1.87 122.79 2.79 123.72 2.79 123.72 2.8 123.72 3.73 124.65 3.73 124.65 3.73 124.65 4.66 125.58 4.66 125.58 4.66 125.58 5.59 126.51 5.59 126.51 5.59 126.51 6.52 127.44 6.52 127.44 6.52 127.44 7.45 128.37 7.45 128.38 7.46 128.38 8.38 129.3 8.38 129.31 8.39 129.31 9.31 130.23 9.31 130.24 9.32 130.24 10.24 131.16 10.24 131.17 10.25 131.17 11.18 132.1 11.18 132.1 11.18 132.1 12.11 133.03 12.11 133.03 12.11 133.03 13.04 133.96 13.04 133.96 13.04 133.96 13.97 134.89 13.97 134.9 13.97 134.9 14.9 135.82 14.9 135.83 14.91 135.83 15.83 136.75 15.83 136.76 15.84 136.76 16.76 137.68 16.76 137.69 16.77 137.69 17.69 138.61 17.69 138.62 17.7 138.62 18.63 139.54 18.63 139.55 18.63 139.55 19.56 140.48 19.56 140.48 19.56 140.48 20.49 141.41 20.49 141.41 20.49 141.41 21.42 142.34 21.42 142.34 21.43 142.34 22.36 143.28 23.07 142.57 22.84 142.34 53.2 142.34 53.2 141.88 53.73 141.88 53.73 120.92 54.28 120.92 54.57 121.86 55.21 121.86 55.5 122.79 56.14 122.79 56.43 123.72 57.08 123.72 57.36 124.65 58.01 124.65 58.29 125.58 58.94 125.58 59.22 126.51 59.87 126.51 60.15 127.44 60.8 127.44 61.09 128.38 61.73 128.38 62.02 129.31 62.66 129.31 62.95 130.24 63.59 130.24 63.88 131.17 64.53 131.17 64.81 132.1 65.46 132.1 65.74 133.03 66.39 133.03 66.67 133.96 67.32 133.96 67.6 134.9 68.25 134.9 68.53 135.83 69.18 135.83 69.47 136.76 70.11 136.76 70.4 137.69 71.04 137.69 71.33 138.62 71.97 138.62 72.26 139.55 72.91 139.55 73.19 140.48 73.84 140.48 74.12 141.41 74.77 141.41 75.05 142.34 101.41 142.34 101.55 141.88 102.31 141.88 107.35 125.58 107.6 125.58 107.6 126.51 108.53 126.51 108.53 127.44 109.46 127.44 109.46 128.38 110.4 128.38 110.4 129.31 111.33 129.31 111.33 130.24 112.26 130.24 112.26 131.17 113.19 131.17 113.19 132.1 114.12 132.1 114.12 133.03 115.05 133.03 115.05 133.96 115.98 133.96 115.98 134.9 116.92 134.9 116.92 135.83 117.85 135.83 117.85 136.76 118.78 136.76 118.78 137.69 119.71 137.69 119.71 138.62 120.64 138.62 120.64 139.55 121.57 139.55 121.57 140.48 122.5 140.48 122.5 141.41 123.43 141.41 123.43 142.34 155.54 142.34 155.54 141.88 156.07 141.88 156.07 25.54 155.54 25.54 155.54 24.38" fill="#b9b9b9"/><polygon points="169.95 137.19 147.35 114.87 148.34 113.59 170.69 135.93 169.95 137.19" fill="#b9b9b9"/><polygon points="75.99 143.28 52.77 120.04 54.1 118.45 76.72 142.59 75.99 143.28" fill="#888"/><polygon points="124.38 143.28 102.23 121.16 102.5 118.45 125.38 142.34 124.38 143.28" fill="#888"/><polygon points="75.99 143.28 53.41 120.68 53.41 68.44 75.99 143.28" fill="#888"/><polygon points="89.87 1.79 74.43 50.48 88.25 96.04 88.25 105.31 88.25 105.31 113.4 26 89.87 1.79" fill="#888"/><polygon points="124.38 143.28 105.26 124.19 125.75 65.42 124.38 143.28" fill="#888"/><polygon points="23.75 141.88 23.75 25.54 65.08 25.54 89.12 101.62 113.25 25.54 155.07 25.54 155.07 141.88 125.76 141.88 125.76 66.3 124.69 66.3 101.31 141.88 77.02 141.88 53.88 66.3 52.73 66.3 52.73 141.88 23.75 141.88" fill="#2a2a2a"/><path d="M156.47,143.28H124.36V72.08l-22,71.2H76L54.13,71.87v71.41H22.35V24.14H66.1l.31,1L89.12,97l23.1-72.85h44.25Zm-29.31-2.79h26.52V26.94H114.27L89.12,106.25,64.06,26.94H25.14V140.48H51.33V64.9h3.58l23.14,75.58h22.23L123.66,64.9h3.5Z" fill="#b9b9b9"/><path d="M0,197.62H2.09l3.63,10.22,3.71-10.22h2.08V210H10.34V198.34l-3.9,10.58H5.09L1.21,198.34V210H0Z" fill="#fff"/><path d="M14.87,197.62h1.3v1.61h-1.3Zm.11,3.62h1.09V210H15Z" fill="#fff"/><path d="M20.18,209.55a3.82,3.82,0,0,1-1.26-1.65,6.22,6.22,0,0,1,0-4.52,3.92,3.92,0,0,1,1.26-1.68,3.19,3.19,0,0,1,2-.63,3.36,3.36,0,0,1,2,.6,4,4,0,0,1,1.33,1.65l-1,.46A2.3,2.3,0,0,0,22.17,202a2,2,0,0,0-1.47.55,3.11,3.11,0,0,0-.83,1.39,6,6,0,0,0-.25,1.74,5.9,5.9,0,0,0,.25,1.75,3,3,0,0,0,.82,1.36,2.06,2.06,0,0,0,1.47.53,2.28,2.28,0,0,0,2.28-1.79l.94.43a3.41,3.41,0,0,1-1.22,1.66,3.31,3.31,0,0,1-2,.59A3.28,3.28,0,0,1,20.18,209.55Z" fill="#fff"/><path d="M27.62,197.62H28.7v5.17a3.46,3.46,0,0,1,2.92-1.69,2.72,2.72,0,0,1,1.62.46,2.66,2.66,0,0,1,.95,1.24,4.85,4.85,0,0,1,.3,1.75V210H33.38v-5.24A3.72,3.72,0,0,0,33,202.9a1.57,1.57,0,0,0-1.5-.76,2.47,2.47,0,0,0-1.4.42,3,3,0,0,0-1,1.13,3.27,3.27,0,0,0-.36,1.52V210H27.62Z" fill="#fff"/><path d="M37.86,209.86a2.31,2.31,0,0,1-1-.88,2.55,2.55,0,0,1-.35-1.35q0-2.58,3.94-2.58h1.94a4,4,0,0,0-.53-2.23,1.92,1.92,0,0,0-1.73-.8,3,3,0,0,0-2.51,1.34l-.79-.62a3.75,3.75,0,0,1,3.2-1.67,3.57,3.57,0,0,1,1.83.44A2.79,2.79,0,0,1,43,202.74a4.33,4.33,0,0,1,.38,1.88V210h-.95V208.2a3.12,3.12,0,0,1-1.29,1.48,3.66,3.66,0,0,1-1.87.49A3.22,3.22,0,0,1,37.86,209.86ZM41,208.74a3.31,3.31,0,0,0,1-1.28,3.63,3.63,0,0,0,.36-1.55H40.6a4.75,4.75,0,0,0-2.21.39,1.41,1.41,0,0,0-.71,1.35,1.46,1.46,0,0,0,.48,1.21,1.92,1.92,0,0,0,1.25.38A2.63,2.63,0,0,0,41,208.74Z" fill="#fff"/><path d="M47.31,209.5a3.62,3.62,0,0,1-1.29-1.6,5.63,5.63,0,0,1-.43-2.24,5.86,5.86,0,0,1,.42-2.25,3.88,3.88,0,0,1,1.25-1.66,3.22,3.22,0,0,1,2-.63,3.44,3.44,0,0,1,2.12.61,3.34,3.34,0,0,1,1.16,1.56,6,6,0,0,1,.35,2.07,5.6,5.6,0,0,1,0,.62H46.73a3.73,3.73,0,0,0,.28,1.58,2.64,2.64,0,0,0,.91,1.15,2.48,2.48,0,0,0,1.48.43,4.47,4.47,0,0,0,1.44-.21,2.75,2.75,0,0,0,1.1-.73l.75.58a4.55,4.55,0,0,1-1.48,1,4.83,4.83,0,0,1-1.8.31A3.62,3.62,0,0,1,47.31,209.5ZM51.84,205a4.23,4.23,0,0,0-.25-1.47,2.4,2.4,0,0,0-.83-1.11,2.44,2.44,0,0,0-1.5-.43,2.26,2.26,0,0,0-1.37.41,2.52,2.52,0,0,0-.85,1.09,4.24,4.24,0,0,0-.31,1.51Z" fill="#fff"/><path d="M55.67,209.95a1,1,0,0,1-.36-.56,3.82,3.82,0,0,1-.08-.85V197.62h1.11v11.29a.75.75,0,0,0,.08.17.29.29,0,0,0,.28.14,4.61,4.61,0,0,0,.91-.09V210a2.7,2.7,0,0,1-.48.12,3.43,3.43,0,0,1-.59.05A1.4,1.4,0,0,1,55.67,209.95Z" fill="#fff"/><path d="M66,209.77a3.76,3.76,0,0,1-1.49-1.09,3.58,3.58,0,0,1-.77-1.77l1.08-.34a2.67,2.67,0,0,0,.53,1.38,2.7,2.7,0,0,0,1.11.85,3.69,3.69,0,0,0,1.44.28,2.89,2.89,0,0,0,1.91-.59,2.19,2.19,0,0,0,.71-1.78,2.14,2.14,0,0,0-.38-1.29,3.16,3.16,0,0,0-1-.87,15.57,15.57,0,0,0-1.53-.77,15.92,15.92,0,0,1-1.63-.82,3.33,3.33,0,0,1-1-1,2.52,2.52,0,0,1-.42-1.48,3,3,0,0,1,.43-1.59,3,3,0,0,1,1.17-1.09,3.43,3.43,0,0,1,1.62-.39,4,4,0,0,1,1.94.46,3.73,3.73,0,0,1,1.41,1.4l-.84.6a2.53,2.53,0,0,0-1-1.09,3,3,0,0,0-1.47-.36,2.31,2.31,0,0,0-1,.24,2,2,0,0,0-.77.67,1.8,1.8,0,0,0-.29,1,1.71,1.71,0,0,0,.35,1.07,3,3,0,0,0,.86.76q.52.31,1.42.73a15.76,15.76,0,0,1,1.73.91,3.79,3.79,0,0,1,1.13,1.1,2.93,2.93,0,0,1,.46,1.68,3.47,3.47,0,0,1-.49,1.85,3.27,3.27,0,0,1-1.33,1.23,4.17,4.17,0,0,1-1.93.43A5,5,0,0,1,66,209.77Z" fill="#fff"/><path d="M74,197.62h1.3v1.61H74Zm.11,3.62h1.09V210H74.1Z" fill="#fff"/><path d="M85,197.62V210H83.89v-1.28a3.65,3.65,0,0,1-1.14,1.07,3.23,3.23,0,0,1-1.65.38,2.93,2.93,0,0,1-1.84-.6,3.77,3.77,0,0,1-1.19-1.64,6.66,6.66,0,0,1,0-4.61,3.76,3.76,0,0,1,1.19-1.64,2.93,2.93,0,0,1,1.84-.6,3.14,3.14,0,0,1,2.79,1.45v-4.89Zm-2.14,11.14a2.93,2.93,0,0,0,.86-1.33,6.18,6.18,0,0,0,0-3.62,3,3,0,0,0-.86-1.34,2.15,2.15,0,0,0-1.47-.51,2.13,2.13,0,0,0-1.45.51,3,3,0,0,0-.87,1.34,6,6,0,0,0,0,3.62,3,3,0,0,0,.87,1.34,2.14,2.14,0,0,0,1.45.51A2.16,2.16,0,0,0,82.84,208.77Z" fill="#fff"/><path d="M89.12,209.5a3.62,3.62,0,0,1-1.29-1.6,5.63,5.63,0,0,1-.43-2.24,5.86,5.86,0,0,1,.42-2.25,3.88,3.88,0,0,1,1.25-1.66,3.22,3.22,0,0,1,2-.63,3.44,3.44,0,0,1,2.12.61,3.34,3.34,0,0,1,1.16,1.56,6,6,0,0,1,.35,2.07,5.6,5.6,0,0,1,0,.62H88.54a3.73,3.73,0,0,0,.28,1.58,2.64,2.64,0,0,0,.91,1.15,2.48,2.48,0,0,0,1.48.43,4.47,4.47,0,0,0,1.44-.21,2.75,2.75,0,0,0,1.1-.73l.75.58a4.55,4.55,0,0,1-1.48,1,4.83,4.83,0,0,1-1.8.31A3.62,3.62,0,0,1,89.12,209.5ZM93.66,205a4.23,4.23,0,0,0-.25-1.47,2.4,2.4,0,0,0-.83-1.11,2.44,2.44,0,0,0-1.5-.43,2.26,2.26,0,0,0-1.37.41,2.52,2.52,0,0,0-.85,1.09,4.24,4.24,0,0,0-.31,1.51Z" fill="#fff"/><path d="M102.69,196.56h.8v17.91h-.8Z" fill="#fff"/><path d="M111.41,197.62h1.2l3,11.06,3.16-10.34h1l3.18,10.34,3-11.06h1.2L123.69,210h-1.37l-3-9.74L116.2,210h-1.37Z" fill="#fff"/><path d="M129.83,209.5a3.63,3.63,0,0,1-1.29-1.6,5.64,5.64,0,0,1-.43-2.24,5.86,5.86,0,0,1,.43-2.25,3.87,3.87,0,0,1,1.25-1.66,3.22,3.22,0,0,1,2-.63,3.45,3.45,0,0,1,2.12.61,3.34,3.34,0,0,1,1.16,1.56,6,6,0,0,1,.35,2.07,5.6,5.6,0,0,1,0,.62h-6.12a3.73,3.73,0,0,0,.28,1.58,2.63,2.63,0,0,0,.91,1.15,2.48,2.48,0,0,0,1.47.43,4.48,4.48,0,0,0,1.44-.21,2.75,2.75,0,0,0,1.1-.73l.75.58a4.55,4.55,0,0,1-1.48,1,4.82,4.82,0,0,1-1.8.31A3.62,3.62,0,0,1,129.83,209.5Zm4.54-4.46a4.23,4.23,0,0,0-.25-1.47,2.41,2.41,0,0,0-.83-1.11,2.44,2.44,0,0,0-1.51-.43,2.26,2.26,0,0,0-1.37.41,2.52,2.52,0,0,0-.85,1.09,4.24,4.24,0,0,0-.31,1.51Z" fill="#fff"/><path d="M138.87,208.72V210H137.8V197.62h1.08v4.89a3.14,3.14,0,0,1,2.78-1.45,3,3,0,0,1,1.87.6,3.74,3.74,0,0,1,1.19,1.64,6.73,6.73,0,0,1,0,4.62,3.75,3.75,0,0,1-1.19,1.64,3,3,0,0,1-1.87.6A3.11,3.11,0,0,1,138.87,208.72Zm4,0a3,3,0,0,0,.89-1.34,5.66,5.66,0,0,0,0-3.61,3.07,3.07,0,0,0-.89-1.35,2.17,2.17,0,0,0-1.47-.51,2.11,2.11,0,0,0-1.45.51,3,3,0,0,0-.85,1.34,6.07,6.07,0,0,0,0,3.62,3,3,0,0,0,.85,1.34,2.12,2.12,0,0,0,1.45.51A2.18,2.18,0,0,0,142.84,208.77Z" fill="#fff"/><path d="M152.78,197.62h3a7.23,7.23,0,0,1,3.37.72,4.81,4.81,0,0,1,2.11,2.13,7.47,7.47,0,0,1,.72,3.43,7,7,0,0,1-.73,3.31,4.81,4.81,0,0,1-2.12,2.08,7.33,7.33,0,0,1-3.36.71h-3Zm2.82,11.29a6.12,6.12,0,0,0,2.68-.56,4.28,4.28,0,0,0,1.87-1.72,5.43,5.43,0,0,0,.69-2.83,5.26,5.26,0,0,0-1.29-3.8,5,5,0,0,0-3.76-1.33H154v10.25Z" fill="#fff"/><path d="M165.76,209.5a3.63,3.63,0,0,1-1.29-1.6,5.64,5.64,0,0,1-.43-2.24,5.86,5.86,0,0,1,.43-2.25,3.87,3.87,0,0,1,1.25-1.66,3.22,3.22,0,0,1,2-.63,3.45,3.45,0,0,1,2.12.61,3.34,3.34,0,0,1,1.16,1.56,6,6,0,0,1,.35,2.07,5.6,5.6,0,0,1,0,.62h-6.12a3.73,3.73,0,0,0,.28,1.58,2.63,2.63,0,0,0,.91,1.15,2.48,2.48,0,0,0,1.47.43,4.48,4.48,0,0,0,1.44-.21,2.75,2.75,0,0,0,1.1-.73l.75.58a4.55,4.55,0,0,1-1.48,1,4.82,4.82,0,0,1-1.8.31A3.62,3.62,0,0,1,165.76,209.5ZM170.3,205a4.23,4.23,0,0,0-.25-1.47,2.41,2.41,0,0,0-.83-1.11,2.44,2.44,0,0,0-1.51-.43,2.26,2.26,0,0,0-1.37.41,2.52,2.52,0,0,0-.85,1.09,4.24,4.24,0,0,0-.31,1.51Z" fill="#fff"/><path d="M172.42,201.25h1.2l2.49,7.31,2.51-7.31h1.16L176.61,210h-1Z" fill="#fff"/><path d="M182.53,209.5a3.62,3.62,0,0,1-1.29-1.6,5.61,5.61,0,0,1-.43-2.24,5.86,5.86,0,0,1,.42-2.25,3.89,3.89,0,0,1,1.25-1.66,3.23,3.23,0,0,1,2-.63,3.44,3.44,0,0,1,2.12.61,3.33,3.33,0,0,1,1.16,1.56,6,6,0,0,1,.35,2.07,5.6,5.6,0,0,1,0,.62H182a3.73,3.73,0,0,0,.28,1.58,2.65,2.65,0,0,0,.91,1.15,2.49,2.49,0,0,0,1.48.43,4.47,4.47,0,0,0,1.44-.21,2.75,2.75,0,0,0,1.1-.73l.75.58a4.56,4.56,0,0,1-1.47,1,4.84,4.84,0,0,1-1.8.31A3.61,3.61,0,0,1,182.53,209.5Zm4.54-4.46a4.23,4.23,0,0,0-.25-1.47,2.38,2.38,0,0,0-.83-1.11,2.44,2.44,0,0,0-1.5-.43,2.27,2.27,0,0,0-1.37.41,2.52,2.52,0,0,0-.85,1.09A4.24,4.24,0,0,0,182,205Z" fill="#fff"/><path d="M190.9,209.95a1,1,0,0,1-.36-.56,3.82,3.82,0,0,1-.08-.85V197.62h1.11v11.29a.8.8,0,0,0,.08.17.29.29,0,0,0,.28.14,4.6,4.6,0,0,0,.91-.09V210a2.68,2.68,0,0,1-.48.12,3.42,3.42,0,0,1-.59.05A1.4,1.4,0,0,1,190.9,209.95Z" fill="#fff"/><path d="M196.13,209.55a4.16,4.16,0,0,1-1.43-1.66,5.13,5.13,0,0,1-.51-2.29,5.07,5.07,0,0,1,.51-2.28,4.11,4.11,0,0,1,1.43-1.65,3.71,3.71,0,0,1,2.09-.61,3.77,3.77,0,0,1,2.11.61,4.18,4.18,0,0,1,1.46,1.65,5.22,5.22,0,0,1,0,4.57,4.23,4.23,0,0,1-1.46,1.66,3.72,3.72,0,0,1-2.11.62A3.66,3.66,0,0,1,196.13,209.55Zm3.76-.8a3.12,3.12,0,0,0,1-1.36,4.89,4.89,0,0,0,.33-1.79,4.82,4.82,0,0,0-.33-1.79,3.08,3.08,0,0,0-1-1.34,2.88,2.88,0,0,0-3.28,0,3.08,3.08,0,0,0-1,1.34,4.75,4.75,0,0,0-.33,1.79,4.84,4.84,0,0,0,.33,1.8,3.12,3.12,0,0,0,1,1.36,2.58,2.58,0,0,0,1.62.52A2.61,2.61,0,0,0,199.88,208.76Z" fill="#fff"/><path d="M204.67,201.25h1.09v1.27a3.14,3.14,0,0,1,2.72-1.45,3.1,3.1,0,0,1,1.92.6,3.67,3.67,0,0,1,1.2,1.63,6.86,6.86,0,0,1,0,4.63,3.7,3.7,0,0,1-1.2,1.64,3.08,3.08,0,0,1-1.92.6,3.25,3.25,0,0,1-1.57-.38,3.17,3.17,0,0,1-1.15-1.07v5.1h-1.09Zm5.07,7.52a3,3,0,0,0,.88-1.34,5.82,5.82,0,0,0,0-3.61,3.07,3.07,0,0,0-.88-1.34,2.36,2.36,0,0,0-2.94,0,3,3,0,0,0-.87,1.34,5.95,5.95,0,0,0,0,3.62,3,3,0,0,0,.87,1.34,2.38,2.38,0,0,0,2.94,0Z" fill="#fff"/><path d="M214.44,201.25h1.11v1.47a2.4,2.4,0,0,1,.51-.82,2.68,2.68,0,0,1,.85-.61,2.52,2.52,0,0,1,1.06-.23,3,3,0,0,1,1.71.48,2.51,2.51,0,0,1,1,1.42,3.31,3.31,0,0,1,1.07-1.41,2.66,2.66,0,0,1,1.6-.49,2.86,2.86,0,0,1,1.7.48,2.74,2.74,0,0,1,1,1.29,5.11,5.11,0,0,1,.31,1.84V210h-1.11v-5.24a4.07,4.07,0,0,0-.45-2,1.6,1.6,0,0,0-1.54-.83,1.82,1.82,0,0,0-1.24.46,2.92,2.92,0,0,0-.8,1.2,4.37,4.37,0,0,0-.27,1.51V210h-1.11v-5.27a4.07,4.07,0,0,0-.44-2,1.58,1.58,0,0,0-1.52-.81,1.74,1.74,0,0,0-1.26.52,3.25,3.25,0,0,0-.8,1.33,5.29,5.29,0,0,0-.27,1.69V210h-1.11Z" fill="#fff"/><path d="M230.29,209.5a3.62,3.62,0,0,1-1.29-1.6,5.61,5.61,0,0,1-.43-2.24,5.86,5.86,0,0,1,.42-2.25,3.89,3.89,0,0,1,1.25-1.66,3.23,3.23,0,0,1,2-.63,3.44,3.44,0,0,1,2.12.61,3.33,3.33,0,0,1,1.16,1.56,6,6,0,0,1,.35,2.07,5.6,5.6,0,0,1,0,.62h-6.12a3.73,3.73,0,0,0,.28,1.58,2.65,2.65,0,0,0,.91,1.15,2.49,2.49,0,0,0,1.48.43,4.47,4.47,0,0,0,1.44-.21,2.75,2.75,0,0,0,1.1-.73l.75.58a4.56,4.56,0,0,1-1.47,1,4.84,4.84,0,0,1-1.8.31A3.61,3.61,0,0,1,230.29,209.5Zm4.54-4.46a4.23,4.23,0,0,0-.25-1.47,2.38,2.38,0,0,0-.83-1.11,2.44,2.44,0,0,0-1.5-.43,2.27,2.27,0,0,0-1.37.41,2.52,2.52,0,0,0-.85,1.09,4.24,4.24,0,0,0-.31,1.51Z" fill="#fff"/><path d="M238.24,201.25h1.09v1.65a3.48,3.48,0,0,1,1.16-1.31,3,3,0,0,1,1.72-.48,2.65,2.65,0,0,1,1.62.47,2.73,2.73,0,0,1,.95,1.28,5.16,5.16,0,0,1,.3,1.82V210H244v-5.24a3.79,3.79,0,0,0-.47-1.94,1.68,1.68,0,0,0-1.58-.82,2.28,2.28,0,0,0-1.32.4,2.71,2.71,0,0,0-.94,1.19,4.76,4.76,0,0,0-.35,1.92V210h-1.09Z" fill="#fff"/><path d="M248.68,209.53a3.2,3.2,0,0,1-.44-1.83v-5.56h-1.4v-.89h1.4v-1.93l1.09-1.15v3.07h2.22v.89h-2.22v5.66a1.7,1.7,0,0,0,.32,1.1,1,1,0,0,0,.83.39,2,2,0,0,0,.79-.19V210a1.94,1.94,0,0,1-.43.11,3.93,3.93,0,0,1-.65,0A1.71,1.71,0,0,1,248.68,209.53Z" fill="#fff"/></svg>